<mxfile host="app.diagrams.net" modified="2023-11-17T01:12:44.849Z" agent="Mozilla/5.0 (Windows NT 10.0; Win64; x64) AppleWebKit/537.36 (KHTML, like Gecko) Chrome/119.0.0.0 Safari/537.36" etag="pa_5zICNCt5eqQKHRZO6" version="22.1.2" type="github">
  <diagram name="Page-1" id="2YBvvXClWsGukQMizWep">
    <mxGraphModel dx="1900" dy="613" grid="1" gridSize="10" guides="1" tooltips="1" connect="1" arrows="1" fold="1" page="1" pageScale="1" pageWidth="850" pageHeight="1100" math="0" shadow="0">
      <root>
        <mxCell id="0" />
        <mxCell id="1" parent="0" />
        <mxCell id="kymsO1xxHvnfh_cO7qhP-2" value="내용" style="whiteSpace=wrap;html=1;align=center;labelBackgroundColor=none;fillColor=#b1ddf0;strokeColor=#10739e;" vertex="1" parent="1">
          <mxGeometry x="70" y="310" width="100" height="40" as="geometry" />
        </mxCell>
        <mxCell id="kymsO1xxHvnfh_cO7qhP-3" value="회원" style="whiteSpace=wrap;html=1;align=center;labelBackgroundColor=none;fillColor=#b1ddf0;strokeColor=#10739e;" vertex="1" parent="1">
          <mxGeometry x="600" y="520" width="100" height="40" as="geometry" />
        </mxCell>
        <mxCell id="kymsO1xxHvnfh_cO7qhP-4" value="채팅" style="whiteSpace=wrap;html=1;align=center;labelBackgroundColor=none;fillColor=#b1ddf0;strokeColor=#10739e;" vertex="1" parent="1">
          <mxGeometry x="600" y="310" width="100" height="40" as="geometry" />
        </mxCell>
        <mxCell id="kymsO1xxHvnfh_cO7qhP-5" value="작성" style="shape=rhombus;perimeter=rhombusPerimeter;whiteSpace=wrap;html=1;align=center;labelBackgroundColor=none;fillColor=#f5f5f5;strokeColor=#666666;gradientColor=#b3b3b3;" vertex="1" parent="1">
          <mxGeometry x="590" y="420" width="120" height="60" as="geometry" />
        </mxCell>
        <mxCell id="kymsO1xxHvnfh_cO7qhP-6" value="조회" style="shape=rhombus;perimeter=rhombusPerimeter;whiteSpace=wrap;html=1;align=center;labelBackgroundColor=none;fillColor=#f5f5f5;strokeColor=#666666;gradientColor=#b3b3b3;" vertex="1" parent="1">
          <mxGeometry x="350" y="300" width="120" height="60" as="geometry" />
        </mxCell>
        <mxCell id="kymsO1xxHvnfh_cO7qhP-7" value="" style="endArrow=none;html=1;rounded=0;exitX=0.5;exitY=1;exitDx=0;exitDy=0;entryX=0.5;entryY=0;entryDx=0;entryDy=0;labelBackgroundColor=none;strokeColor=#000000;fontColor=default;" edge="1" parent="1" source="kymsO1xxHvnfh_cO7qhP-5" target="kymsO1xxHvnfh_cO7qhP-3">
          <mxGeometry relative="1" as="geometry">
            <mxPoint x="460" y="209" as="sourcePoint" />
            <mxPoint x="620" y="209" as="targetPoint" />
          </mxGeometry>
        </mxCell>
        <mxCell id="kymsO1xxHvnfh_cO7qhP-8" value="1" style="resizable=0;html=1;whiteSpace=wrap;align=right;verticalAlign=bottom;labelBackgroundColor=none;fillColor=#F2CC8F;strokeColor=#E07A5F;fontColor=#393C56;" connectable="0" vertex="1" parent="kymsO1xxHvnfh_cO7qhP-7">
          <mxGeometry x="1" relative="1" as="geometry">
            <mxPoint x="30" y="-10" as="offset" />
          </mxGeometry>
        </mxCell>
        <mxCell id="kymsO1xxHvnfh_cO7qhP-9" value="" style="endArrow=none;html=1;rounded=0;entryX=1;entryY=0.5;entryDx=0;entryDy=0;labelBackgroundColor=none;strokeColor=#000000;fontColor=default;" edge="1" parent="1" source="kymsO1xxHvnfh_cO7qhP-6" target="kymsO1xxHvnfh_cO7qhP-2">
          <mxGeometry relative="1" as="geometry">
            <mxPoint x="160" y="241" as="sourcePoint" />
            <mxPoint x="170" y="320" as="targetPoint" />
          </mxGeometry>
        </mxCell>
        <mxCell id="kymsO1xxHvnfh_cO7qhP-10" value="1" style="resizable=0;html=1;whiteSpace=wrap;align=right;verticalAlign=bottom;labelBackgroundColor=none;fillColor=#F2CC8F;strokeColor=#E07A5F;fontColor=#393C56;" connectable="0" vertex="1" parent="kymsO1xxHvnfh_cO7qhP-9">
          <mxGeometry x="1" relative="1" as="geometry">
            <mxPoint x="90" y="-10" as="offset" />
          </mxGeometry>
        </mxCell>
        <mxCell id="kymsO1xxHvnfh_cO7qhP-13" value="" style="endArrow=none;html=1;rounded=0;entryX=1;entryY=0.5;entryDx=0;entryDy=0;exitX=0;exitY=0.5;exitDx=0;exitDy=0;labelBackgroundColor=none;strokeColor=#000000;fontColor=default;" edge="1" parent="1" source="kymsO1xxHvnfh_cO7qhP-4" target="kymsO1xxHvnfh_cO7qhP-6">
          <mxGeometry relative="1" as="geometry">
            <mxPoint x="370" y="326" as="sourcePoint" />
            <mxPoint x="291" y="290" as="targetPoint" />
          </mxGeometry>
        </mxCell>
        <mxCell id="kymsO1xxHvnfh_cO7qhP-14" value="1" style="resizable=0;html=1;whiteSpace=wrap;align=right;verticalAlign=bottom;labelBackgroundColor=none;fillColor=#F2CC8F;strokeColor=#E07A5F;fontColor=#393C56;" connectable="0" vertex="1" parent="kymsO1xxHvnfh_cO7qhP-13">
          <mxGeometry x="1" relative="1" as="geometry">
            <mxPoint x="70" y="-20" as="offset" />
          </mxGeometry>
        </mxCell>
        <mxCell id="kymsO1xxHvnfh_cO7qhP-15" value="" style="endArrow=none;html=1;rounded=0;entryX=0.5;entryY=1;entryDx=0;entryDy=0;labelBackgroundColor=none;strokeColor=#000000;fontColor=default;" edge="1" parent="1" target="kymsO1xxHvnfh_cO7qhP-4">
          <mxGeometry relative="1" as="geometry">
            <mxPoint x="649.5" y="420" as="sourcePoint" />
            <mxPoint x="649.5" y="360" as="targetPoint" />
            <Array as="points">
              <mxPoint x="649.5" y="390" />
            </Array>
          </mxGeometry>
        </mxCell>
        <mxCell id="kymsO1xxHvnfh_cO7qhP-16" value="N" style="resizable=0;html=1;whiteSpace=wrap;align=right;verticalAlign=bottom;labelBackgroundColor=none;fillColor=#F2CC8F;strokeColor=#E07A5F;fontColor=#393C56;" connectable="0" vertex="1" parent="kymsO1xxHvnfh_cO7qhP-15">
          <mxGeometry x="1" relative="1" as="geometry">
            <mxPoint x="30" y="40" as="offset" />
          </mxGeometry>
        </mxCell>
        <mxCell id="kymsO1xxHvnfh_cO7qhP-21" value="" style="endArrow=none;html=1;rounded=0;labelBackgroundColor=none;strokeColor=#000000;fontColor=default;entryX=0.5;entryY=0;entryDx=0;entryDy=0;" edge="1" parent="1" source="kymsO1xxHvnfh_cO7qhP-23" target="kymsO1xxHvnfh_cO7qhP-2">
          <mxGeometry relative="1" as="geometry">
            <mxPoint x="110" y="270" as="sourcePoint" />
            <mxPoint x="70" y="310" as="targetPoint" />
          </mxGeometry>
        </mxCell>
        <mxCell id="kymsO1xxHvnfh_cO7qhP-23" value="&lt;font style=&quot;font-size: 14px;&quot;&gt;&lt;b&gt;채팅번호&lt;/b&gt;&lt;/font&gt;" style="ellipse;whiteSpace=wrap;html=1;align=center;fontStyle=4;hachureGap=4;strokeColor=#6c8ebf;fontFamily=Architects Daughter;fontSource=https%3A%2F%2Ffonts.googleapis.com%2Fcss%3Ffamily%3DArchitects%2BDaughter;fontSize=20;fillColor=#dae8fc;" vertex="1" parent="1">
          <mxGeometry x="-20" y="240" width="100" height="40" as="geometry" />
        </mxCell>
        <mxCell id="kymsO1xxHvnfh_cO7qhP-28" value="" style="endArrow=none;html=1;rounded=0;labelBackgroundColor=none;strokeColor=#000000;fontColor=default;entryX=0.5;entryY=0;entryDx=0;entryDy=0;" edge="1" parent="1" source="kymsO1xxHvnfh_cO7qhP-29" target="kymsO1xxHvnfh_cO7qhP-2">
          <mxGeometry relative="1" as="geometry">
            <mxPoint x="170" y="280" as="sourcePoint" />
            <mxPoint x="127" y="320" as="targetPoint" />
          </mxGeometry>
        </mxCell>
        <mxCell id="kymsO1xxHvnfh_cO7qhP-29" value="&lt;font style=&quot;font-size: 14px;&quot;&gt;대화&lt;/font&gt;" style="ellipse;whiteSpace=wrap;html=1;align=center;hachureGap=4;strokeColor=#6c8ebf;fontFamily=Architects Daughter;fontSource=https%3A%2F%2Ffonts.googleapis.com%2Fcss%3Ffamily%3DArchitects%2BDaughter;fontSize=20;fillColor=#dae8fc;" vertex="1" parent="1">
          <mxGeometry x="70" y="230" width="100" height="40" as="geometry" />
        </mxCell>
        <mxCell id="kymsO1xxHvnfh_cO7qhP-30" value="" style="endArrow=none;html=1;rounded=0;labelBackgroundColor=none;strokeColor=#000000;fontColor=default;entryX=0.5;entryY=0;entryDx=0;entryDy=0;exitX=0;exitY=1;exitDx=0;exitDy=0;" edge="1" parent="1" source="kymsO1xxHvnfh_cO7qhP-31" target="kymsO1xxHvnfh_cO7qhP-2">
          <mxGeometry relative="1" as="geometry">
            <mxPoint x="210" y="280" as="sourcePoint" />
            <mxPoint x="160" y="310" as="targetPoint" />
          </mxGeometry>
        </mxCell>
        <mxCell id="kymsO1xxHvnfh_cO7qhP-31" value="&lt;font style=&quot;font-size: 14px;&quot;&gt;응답&lt;span style=&quot;white-space: pre;&quot;&gt;&#x9;&lt;/span&gt;&lt;/font&gt;" style="ellipse;whiteSpace=wrap;html=1;align=center;hachureGap=4;strokeColor=#6c8ebf;fontFamily=Architects Daughter;fontSource=https%3A%2F%2Ffonts.googleapis.com%2Fcss%3Ffamily%3DArchitects%2BDaughter;fontSize=20;fillColor=#dae8fc;" vertex="1" parent="1">
          <mxGeometry x="170" y="230" width="100" height="40" as="geometry" />
        </mxCell>
        <mxCell id="kymsO1xxHvnfh_cO7qhP-32" value="" style="endArrow=none;html=1;rounded=0;labelBackgroundColor=none;strokeColor=#000000;fontColor=default;exitX=0;exitY=1;exitDx=0;exitDy=0;" edge="1" parent="1" source="kymsO1xxHvnfh_cO7qhP-33">
          <mxGeometry relative="1" as="geometry">
            <mxPoint x="220" y="290" as="sourcePoint" />
            <mxPoint x="120" y="310" as="targetPoint" />
          </mxGeometry>
        </mxCell>
        <mxCell id="kymsO1xxHvnfh_cO7qhP-33" value="&lt;span style=&quot;font-size: 14px;&quot;&gt;날짜&lt;/span&gt;" style="ellipse;whiteSpace=wrap;html=1;align=center;hachureGap=4;strokeColor=#6c8ebf;fontFamily=Architects Daughter;fontSource=https%3A%2F%2Ffonts.googleapis.com%2Fcss%3Ffamily%3DArchitects%2BDaughter;fontSize=20;fillColor=#dae8fc;" vertex="1" parent="1">
          <mxGeometry x="260" y="230" width="100" height="40" as="geometry" />
        </mxCell>
        <mxCell id="kymsO1xxHvnfh_cO7qhP-34" value="" style="endArrow=none;html=1;rounded=0;labelBackgroundColor=none;strokeColor=#000000;fontColor=default;entryX=0.5;entryY=0;entryDx=0;entryDy=0;exitX=0.068;exitY=0.715;exitDx=0;exitDy=0;exitPerimeter=0;" edge="1" parent="1" source="kymsO1xxHvnfh_cO7qhP-38">
          <mxGeometry relative="1" as="geometry">
            <mxPoint x="741.3268827818442" y="516.3846384103749" as="sourcePoint" />
            <mxPoint x="700" y="540" as="targetPoint" />
          </mxGeometry>
        </mxCell>
        <mxCell id="kymsO1xxHvnfh_cO7qhP-36" value="" style="endArrow=none;html=1;rounded=0;labelBackgroundColor=none;strokeColor=#000000;fontColor=default;entryX=1;entryY=0.5;entryDx=0;entryDy=0;exitX=0.044;exitY=0.705;exitDx=0;exitDy=0;exitPerimeter=0;" edge="1" parent="1" source="kymsO1xxHvnfh_cO7qhP-37" target="kymsO1xxHvnfh_cO7qhP-3">
          <mxGeometry relative="1" as="geometry">
            <mxPoint x="760" y="540" as="sourcePoint" />
            <mxPoint x="710" y="610" as="targetPoint" />
          </mxGeometry>
        </mxCell>
        <mxCell id="kymsO1xxHvnfh_cO7qhP-37" value="&lt;span style=&quot;font-size: 14px;&quot;&gt;비밀번호&lt;/span&gt;" style="ellipse;whiteSpace=wrap;html=1;align=center;hachureGap=4;strokeColor=#6c8ebf;fontFamily=Architects Daughter;fontSource=https%3A%2F%2Ffonts.googleapis.com%2Fcss%3Ffamily%3DArchitects%2BDaughter;fontSize=20;fillColor=#dae8fc;" vertex="1" parent="1">
          <mxGeometry x="760" y="520" width="100" height="40" as="geometry" />
        </mxCell>
        <mxCell id="kymsO1xxHvnfh_cO7qhP-38" value="&lt;font style=&quot;font-size: 14px;&quot;&gt;&lt;b&gt;회원아이디&lt;/b&gt;&lt;/font&gt;" style="ellipse;whiteSpace=wrap;html=1;align=center;fontStyle=4;hachureGap=4;strokeColor=#6c8ebf;fontFamily=Architects Daughter;fontSource=https%3A%2F%2Ffonts.googleapis.com%2Fcss%3Ffamily%3DArchitects%2BDaughter;fontSize=20;fillColor=#dae8fc;" vertex="1" parent="1">
          <mxGeometry x="740" y="480" width="100" height="40" as="geometry" />
        </mxCell>
        <mxCell id="kymsO1xxHvnfh_cO7qhP-39" value="" style="endArrow=none;html=1;rounded=0;labelBackgroundColor=none;strokeColor=#000000;fontColor=default;exitX=0.068;exitY=0.215;exitDx=0;exitDy=0;exitPerimeter=0;" edge="1" parent="1" source="kymsO1xxHvnfh_cO7qhP-40">
          <mxGeometry relative="1" as="geometry">
            <mxPoint x="780" y="610" as="sourcePoint" />
            <mxPoint x="700" y="540" as="targetPoint" />
          </mxGeometry>
        </mxCell>
        <mxCell id="kymsO1xxHvnfh_cO7qhP-40" value="&lt;span style=&quot;font-size: 14px;&quot;&gt;이름&lt;/span&gt;" style="ellipse;whiteSpace=wrap;html=1;align=center;hachureGap=4;strokeColor=#6c8ebf;fontFamily=Architects Daughter;fontSource=https%3A%2F%2Ffonts.googleapis.com%2Fcss%3Ffamily%3DArchitects%2BDaughter;fontSize=20;fillColor=#dae8fc;" vertex="1" parent="1">
          <mxGeometry x="770" y="560" width="100" height="40" as="geometry" />
        </mxCell>
        <mxCell id="kymsO1xxHvnfh_cO7qhP-41" value="" style="endArrow=none;html=1;rounded=0;labelBackgroundColor=none;strokeColor=#000000;fontColor=default;exitX=0.5;exitY=1;exitDx=0;exitDy=0;entryX=0.5;entryY=0;entryDx=0;entryDy=0;" edge="1" parent="1" source="kymsO1xxHvnfh_cO7qhP-42" target="kymsO1xxHvnfh_cO7qhP-4">
          <mxGeometry relative="1" as="geometry">
            <mxPoint x="650" y="260" as="sourcePoint" />
            <mxPoint x="610" y="300" as="targetPoint" />
          </mxGeometry>
        </mxCell>
        <mxCell id="kymsO1xxHvnfh_cO7qhP-42" value="&lt;font style=&quot;font-size: 14px;&quot;&gt;&lt;b&gt;채팅번호&lt;/b&gt;&lt;/font&gt;" style="ellipse;whiteSpace=wrap;html=1;align=center;fontStyle=4;hachureGap=4;strokeColor=#6c8ebf;fontFamily=Architects Daughter;fontSource=https%3A%2F%2Ffonts.googleapis.com%2Fcss%3Ffamily%3DArchitects%2BDaughter;fontSize=20;fillColor=#dae8fc;" vertex="1" parent="1">
          <mxGeometry x="550" y="240" width="100" height="40" as="geometry" />
        </mxCell>
        <mxCell id="kymsO1xxHvnfh_cO7qhP-43" value="" style="endArrow=none;html=1;rounded=0;labelBackgroundColor=none;strokeColor=#000000;fontColor=default;entryX=0.5;entryY=0;entryDx=0;entryDy=0;" edge="1" parent="1" source="kymsO1xxHvnfh_cO7qhP-44" target="kymsO1xxHvnfh_cO7qhP-4">
          <mxGeometry relative="1" as="geometry">
            <mxPoint x="730" y="280" as="sourcePoint" />
            <mxPoint x="680" y="310" as="targetPoint" />
          </mxGeometry>
        </mxCell>
        <mxCell id="kymsO1xxHvnfh_cO7qhP-44" value="&lt;font style=&quot;font-size: 14px;&quot;&gt;회원아이디&lt;/font&gt;" style="ellipse;whiteSpace=wrap;html=1;align=center;hachureGap=4;strokeColor=#6c8ebf;fontFamily=Architects Daughter;fontSource=https%3A%2F%2Ffonts.googleapis.com%2Fcss%3Ffamily%3DArchitects%2BDaughter;fontSize=20;fillColor=#dae8fc;" vertex="1" parent="1">
          <mxGeometry x="650" y="230" width="100" height="40" as="geometry" />
        </mxCell>
        <mxCell id="kymsO1xxHvnfh_cO7qhP-46" value="&lt;span style=&quot;font-size: 14px;&quot;&gt;날짜&lt;/span&gt;" style="ellipse;whiteSpace=wrap;html=1;align=center;hachureGap=4;strokeColor=#6c8ebf;fontFamily=Architects Daughter;fontSource=https%3A%2F%2Ffonts.googleapis.com%2Fcss%3Ffamily%3DArchitects%2BDaughter;fontSize=20;fillColor=#dae8fc;" vertex="1" parent="1">
          <mxGeometry x="740" y="250" width="100" height="40" as="geometry" />
        </mxCell>
        <mxCell id="kymsO1xxHvnfh_cO7qhP-48" value="" style="endArrow=none;html=1;rounded=0;labelBackgroundColor=none;strokeColor=#000000;fontColor=default;entryX=0.5;entryY=0;entryDx=0;entryDy=0;" edge="1" parent="1" source="kymsO1xxHvnfh_cO7qhP-46" target="kymsO1xxHvnfh_cO7qhP-4">
          <mxGeometry relative="1" as="geometry">
            <mxPoint x="726" y="280" as="sourcePoint" />
            <mxPoint x="690" y="317" as="targetPoint" />
            <Array as="points">
              <mxPoint x="700" y="297" />
            </Array>
          </mxGeometry>
        </mxCell>
      </root>
    </mxGraphModel>
  </diagram>
</mxfile>
